<svg width="24" height="24" viewBox="0 0 24 24" fill="none" xmlns="http://www.w3.org/2000/svg">
<path opacity="0.4" d="M21.9999 11.9998C21.9999 17.5238 17.5229 21.9998 11.9999 21.9998C6.47688 21.9998 1.99988 17.5238 1.99988 11.9998C1.99988 6.47779 6.47688 1.99979 11.9999 1.99979C17.5229 1.99979 21.9999 6.47779 21.9999 11.9998Z" fill="white" fill-opacity="0.7"/>
<path fill-rule="evenodd" clip-rule="evenodd" d="M11.25 14C11.25 14.4142 11.5858 14.75 12 14.75C12.4142 14.75 12.75 14.4142 12.75 14C12.75 13.284 13.1825 12.8925 13.95 12.2615C14.753 11.6035 15.75 10.7835 15.75 9.25001C15.75 7.48401 14.311 6.25001 12.25 6.25001C11.1988 6.24832 10.1712 6.56181 9.29999 7.15001C8.97151 7.39692 8.90552 7.86441 9.15098 8.19398C9.39678 8.52402 9.86375 8.59582 10.196 8.35301C10.8086 7.95907 11.5216 7.74974 12.25 7.75001C13.465 7.75001 14.25 8.33901 14.25 9.25001C14.25 10.035 13.7805 10.4625 13 11.103C12.2195 11.7435 11.25 12.541 11.25 14ZM12.9999 16.75C12.9999 17.3023 12.5522 17.75 11.9999 17.75C11.4477 17.75 10.9999 17.3023 10.9999 16.75C10.9999 16.1977 11.4477 15.75 11.9999 15.75C12.5522 15.75 12.9999 16.1977 12.9999 16.75Z" fill="white" fill-opacity="0.7"/>
</svg>
